<svg width="53" height="28" viewBox="0 0 53 28" fill="none" xmlns="http://www.w3.org/2000/svg">
<path d="M5.9674 18.4161C5.22373 18.4161 4.3839 18.3519 3.44791 18.2237C2.93503 18.1596 2.58243 18.025 2.3901 17.8198C2.19778 17.6147 2.11443 17.2813 2.14008 16.8197C2.22983 15.5504 2.44139 13.9861 2.77476 12.1269C3.10813 10.255 3.51202 8.45348 3.98642 6.72253C4.07618 6.40199 4.25568 6.1776 4.52494 6.04939C4.7942 5.92117 5.1468 5.85706 5.58274 5.85706C6.36488 5.85706 6.75594 6.07503 6.75594 6.51097C6.75594 6.69048 6.71748 6.89563 6.64055 7.12642C6.30718 8.15217 5.97381 9.53052 5.64044 11.2615C5.30707 12.9796 5.06987 14.6208 4.92883 16.1851C5.31348 16.2235 5.74943 16.2428 6.23666 16.2428C8.48048 16.2428 10.1537 15.5632 11.2564 14.2041C12.3719 12.845 12.9297 11.0307 12.9297 8.76121C12.9297 7.23541 12.4937 6.0558 11.6218 5.22238C10.7499 4.38896 9.51905 3.97225 7.92914 3.97225C6.90339 3.97225 5.88406 4.13252 4.87113 4.45307C3.87103 4.77361 2.96709 5.19673 2.15931 5.72243C1.99263 5.83783 1.81312 5.89552 1.62079 5.89552C1.40282 5.89552 1.22973 5.80577 1.10151 5.62627C0.973289 5.43394 0.90918 5.20314 0.90918 4.93389C0.90918 4.62616 0.960467 4.37613 1.06304 4.18381C1.16562 3.97866 1.33871 3.79274 1.58233 3.62606C2.46703 3.02343 3.5056 2.56825 4.69804 2.26053C5.89047 1.93998 7.03802 1.77971 8.1407 1.77971C9.70497 1.77971 11.0577 2.05538 12.1988 2.60672C13.34 3.14524 14.2183 3.94019 14.8337 4.99158C15.4492 6.04297 15.7569 7.31234 15.7569 8.79967C15.7569 10.7358 15.3722 12.4283 14.6029 13.8771C13.8336 15.3132 12.7117 16.4287 11.2372 17.2236C9.76267 18.0186 8.00607 18.4161 5.9674 18.4161Z" fill="#A2A2A5"/>
<path d="M18.222 18.4161C17.7348 18.4161 17.3886 18.1596 17.1834 17.6467C16.9911 17.1339 16.8949 16.3133 16.8949 15.185C16.8949 13.5181 17.1321 11.9346 17.6065 10.4345C17.7219 10.0626 17.9078 9.79337 18.1643 9.62668C18.4335 9.44718 18.8054 9.35742 19.2798 9.35742C19.5362 9.35742 19.7157 9.38948 19.8183 9.45359C19.9209 9.5177 19.9722 9.6395 19.9722 9.81901C19.9722 10.0242 19.876 10.4857 19.6837 11.2038C19.5555 11.7166 19.4529 12.1654 19.3759 12.5501C19.299 12.9347 19.2349 13.4091 19.1836 13.9733C19.6067 12.8706 20.0811 11.9731 20.6068 11.2807C21.1325 10.5883 21.6454 10.0947 22.1455 9.79978C22.6583 9.50487 23.1263 9.35742 23.5495 9.35742C24.3829 9.35742 24.7996 9.77413 24.7996 10.6076C24.7996 10.7742 24.7419 11.1781 24.6265 11.8192C24.5239 12.3321 24.4726 12.6526 24.4726 12.7809C24.4726 13.2296 24.6329 13.454 24.9535 13.454C25.3125 13.454 25.774 13.1719 26.3382 12.6078C26.5049 12.4411 26.678 12.3577 26.8575 12.3577C27.0242 12.3577 27.1524 12.4347 27.2421 12.5885C27.3447 12.7296 27.396 12.9219 27.396 13.1655C27.396 13.6399 27.2678 14.0118 27.0114 14.281C26.6523 14.6528 26.2292 14.9734 25.742 15.2427C25.2676 15.4991 24.7611 15.6273 24.2226 15.6273C23.543 15.6273 23.0238 15.4542 22.6648 15.108C22.3186 14.7618 22.1455 14.2938 22.1455 13.704C22.1455 13.5117 22.1647 13.3194 22.2032 13.127C22.2288 12.8706 22.2416 12.6975 22.2416 12.6078C22.2416 12.4026 22.1711 12.3 22.0301 12.3C21.8377 12.3 21.5813 12.518 21.2608 12.954C20.953 13.3771 20.6453 13.9412 20.3376 14.6464C20.0299 15.3516 19.7798 16.0953 19.5875 16.8774C19.4465 17.4801 19.2798 17.8904 19.0875 18.1083C18.9079 18.3135 18.6195 18.4161 18.222 18.4161Z" fill="#A2A2A5"/>
<path d="M28.1284 8.08806C27.5898 8.08806 27.186 7.96625 26.9167 7.72264C26.6474 7.4662 26.5128 7.1136 26.5128 6.66483C26.5128 6.21607 26.6859 5.84424 27.0321 5.54933C27.3911 5.24161 27.8335 5.08775 28.3592 5.08775C28.8336 5.08775 29.2182 5.20314 29.5131 5.43394C29.808 5.66473 29.9555 5.99169 29.9555 6.41481C29.9555 6.92768 29.7888 7.33798 29.4554 7.64571C29.1221 7.94061 28.6797 8.08806 28.1284 8.08806ZM27.9745 18.4161C27.1411 18.4161 26.532 18.1212 26.1474 17.5313C25.7756 16.9415 25.5896 16.1594 25.5896 15.185C25.5896 14.608 25.6602 13.8707 25.8012 12.9732C25.9551 12.0628 26.1474 11.2166 26.3782 10.4345C26.4936 10.0242 26.6474 9.74208 26.8398 9.58821C27.0321 9.43435 27.3398 9.35742 27.7629 9.35742C28.4169 9.35742 28.7438 9.57539 28.7438 10.0113C28.7438 10.3319 28.622 11.0756 28.3784 12.2423C28.0707 13.6527 27.9168 14.608 27.9168 15.108C27.9168 15.4927 27.9681 15.7876 28.0707 15.9927C28.1732 16.1979 28.3463 16.3005 28.5899 16.3005C28.8207 16.3005 29.1092 16.1402 29.4554 15.8196C29.8016 15.4991 30.2632 14.9926 30.8402 14.3002C30.994 14.1207 31.1671 14.031 31.3595 14.031C31.5261 14.031 31.6544 14.1079 31.7441 14.2618C31.8467 14.4156 31.898 14.6272 31.898 14.8965C31.898 15.4093 31.7762 15.8068 31.5326 16.0889C30.2632 17.6403 29.0772 18.4161 27.9745 18.4161Z" fill="#A2A2A5"/>
<path d="M40.05 12.4731C40.0884 12.4603 40.1525 12.4539 40.2423 12.4539C40.4346 12.4539 40.5821 12.518 40.6847 12.6462C40.7872 12.7744 40.8385 12.9475 40.8385 13.1655C40.8385 13.563 40.7616 13.8771 40.6077 14.1079C40.4539 14.3259 40.2231 14.4862 39.9153 14.5887C39.3255 14.7811 38.6973 14.8772 38.0305 14.8772C37.4664 14.8772 36.9343 14.8003 36.4342 14.6464C36.0624 15.2491 35.6521 15.8709 35.2033 16.512C34.6904 17.2429 34.2481 17.7429 33.8763 18.0122C33.5044 18.2814 33.0813 18.4161 32.6069 18.4161C32.0812 18.4161 31.6645 18.2109 31.3568 17.8006C31.0619 17.3903 30.8759 16.7428 30.799 15.8581C30.6451 14.063 30.5682 12.4924 30.5682 11.1461V10.4729C30.581 10.0498 30.6964 9.7549 30.9144 9.58821C31.1324 9.42153 31.4593 9.33819 31.8953 9.33819C32.2286 9.33819 32.4723 9.41512 32.6261 9.56898C32.7928 9.71002 32.8761 9.95364 32.8761 10.2998C32.8761 11.7743 32.9659 13.6912 33.1454 16.0504C33.9147 14.9093 34.4917 13.9989 34.8764 13.3194C34.684 12.9475 34.5879 12.5052 34.5879 11.9923C34.5879 11.5564 34.684 11.1332 34.8764 10.7229C35.0687 10.3126 35.3315 9.97928 35.6649 9.72284C35.9983 9.46641 36.3765 9.33819 36.7996 9.33819C37.1715 9.33819 37.4728 9.47282 37.7036 9.74208C37.9344 9.99852 38.0498 10.3768 38.0498 10.8768C38.0498 11.4538 37.8959 12.1141 37.5882 12.8578C38.0754 12.8321 38.7229 12.736 39.5307 12.5693L40.05 12.4731Z" fill="#A2A2A5"/>
<path d="M46.4587 14.031C46.6254 14.031 46.7536 14.1079 46.8433 14.2618C46.9459 14.4156 46.9972 14.6272 46.9972 14.8965C46.9972 15.4093 46.8754 15.8068 46.6318 16.0889C46.0804 16.7684 45.4778 17.3262 44.8239 17.7621C44.1828 18.1981 43.452 18.4161 42.6314 18.4161C41.503 18.4161 40.6632 17.9032 40.1119 16.8774C39.5734 15.8517 39.3041 14.5246 39.3041 12.8963C39.3041 11.332 39.5028 9.54975 39.9003 7.54954C40.3106 5.54933 40.9068 3.83121 41.689 2.39516C42.4839 0.959112 43.4263 0.241089 44.5162 0.241089C45.1316 0.241089 45.6125 0.529581 45.9586 1.10656C46.3177 1.67073 46.4972 2.48491 46.4972 3.54913C46.4972 5.07493 46.074 6.84434 45.2278 8.85737C44.3816 10.8704 43.234 12.8642 41.7851 14.8388C41.8749 15.3645 42.0223 15.7427 42.2275 15.9735C42.4326 16.1915 42.7019 16.3005 43.0353 16.3005C43.561 16.3005 44.0225 16.153 44.42 15.8581C44.8175 15.5504 45.324 15.0311 45.9394 14.3002C46.0933 14.1207 46.2664 14.031 46.4587 14.031ZM44.0931 2.14513C43.7982 2.14513 43.4648 2.67724 43.093 3.74145C42.7211 4.80567 42.3942 6.12632 42.1121 7.7034C41.83 9.28049 41.6761 10.7935 41.6505 12.2423C42.5609 10.7422 43.2853 9.24203 43.8238 7.74187C44.3623 6.22889 44.6316 4.85054 44.6316 3.60682C44.6316 2.63236 44.4521 2.14513 44.0931 2.14513Z" fill="#A2A2A5"/>
<path d="M52.1741 9.35742C52.469 9.35742 52.6742 9.39589 52.7896 9.47282C52.905 9.54975 52.9627 9.67797 52.9627 9.85747C52.9627 10.1652 52.796 11.2615 52.4626 13.1463C52.1677 14.9542 51.9946 16.0248 51.9433 16.3582C51.4689 19.6534 50.815 22.2626 49.9816 24.1859C49.1482 26.1092 48.0391 27.0708 46.6543 27.0708C46.0004 27.0708 45.4683 26.8657 45.058 26.4554C44.6477 26.0579 44.4426 25.5322 44.4426 24.8783C44.4426 24.2756 44.5772 23.6602 44.8464 23.0319C45.1285 22.4037 45.6414 21.6792 46.3851 20.8586C47.1416 20.0508 48.2058 19.1213 49.5777 18.0699L49.6354 17.6275C49.7252 17.1531 49.8277 16.4735 49.9431 15.5888C49.6867 16.512 49.3277 17.2172 48.8661 17.7044C48.4045 18.1789 47.9173 18.4161 47.4044 18.4161C46.8274 18.4161 46.353 18.1532 45.9812 17.6275C45.6222 17.089 45.4427 16.4223 45.4427 15.6273C45.4427 14.6657 45.5068 13.7874 45.635 12.9924C45.7632 12.1846 45.9748 11.332 46.2697 10.4345C46.3979 10.0498 46.5774 9.77413 46.8082 9.60745C47.039 9.44076 47.4044 9.35742 47.9045 9.35742C48.1865 9.35742 48.3789 9.4023 48.4814 9.49205C48.5968 9.5818 48.6545 9.71643 48.6545 9.89594C48.6545 9.99852 48.584 10.3447 48.443 10.9345C48.3148 11.4089 48.2122 11.8384 48.1353 12.2231C48.0327 12.7488 47.9429 13.2553 47.866 13.7425C47.7891 14.2169 47.7506 14.608 47.7506 14.9157C47.7506 15.4029 47.8852 15.6465 48.1545 15.6465C48.3468 15.6465 48.584 15.4542 48.8661 15.0696C49.161 14.6849 49.4687 14.1015 49.7893 13.3194C50.1226 12.5372 50.4432 11.5756 50.7509 10.4345C50.8535 10.0498 51.0073 9.77413 51.2125 9.60745C51.4305 9.44076 51.751 9.35742 52.1741 9.35742ZM46.8659 25.2052C47.1864 25.2052 47.5454 24.8334 47.9429 24.0897C48.3404 23.3461 48.7379 22.1087 49.1354 20.3778C48.1481 21.2112 47.43 21.9677 46.9813 22.6473C46.5453 23.3396 46.3274 23.9423 46.3274 24.4551C46.3274 24.6731 46.3658 24.8526 46.4428 24.9937C46.5325 25.1347 46.6736 25.2052 46.8659 25.2052Z" fill="#A2A2A5"/>
</svg>
